PathFileType	4	(X/Y/Z)	Patient4_TMGait_0pt6_01_right_48.trc.trc
DataRate	CameraRate	NumFrames	NumMarkers	Units	OrigDataRate	OrigDataStartFrame	OrigNumFrames
79.545454545454	79.545454545454	6	33	mm	79.545454545454	53	       141
Frame#	Time	Sacral			L.Shoulder			Chest			R.Shoulder			Neck			R.ASIS			L.ASIS			R.Thigh.Superior			R.Thigh.Lateral			R.Thigh.Inferior			R.Patella			L.Thigh.Superior			L.Thigh.Lateral			L.Thigh.Inferior			L.Patella			L.Shank.Superior			L.Shank.Lateral			L.Shank.Inferior			R.Shank.Superior			R.Shank.Lateral			R.Shank.Inferior			R.Heel			R.Midfoot.Superior			R.Midfoot.Lateral			R.Toe			L.Heel			L.Midfoot.Lateral			L.Midfoot.Superior			L.Toe			L.Elbow			L.Wrist			R.Elbow			R.Wrist			
		X1	Y1	Z1	X2	Y2	Z2	X3	Y3	Z3	X4	Y4	Z4	X5	Y5	Z5	X6	Y6	Z6	X7	Y7	Z7	X8	Y8	Z8	X9	Y9	Z9	X10	Y10	Z10	X11	Y11	Z11	X12	Y12	Z12	X13	Y13	Z13	X14	Y14	Z14	X15	Y15	Z15	X16	Y16	Z16	X17	Y17	Z17	X18	Y18	Z18	X19	Y19	Z19	X20	Y20	Z20	X21	Y21	Z21	X22	Y22	Z22	X23	Y23	Z23	X24	Y24	Z24	X25	Y25	Z25	X26	Y26	Z26	X27	Y27	Z27	X28	Y28	Z28	X29	Y29	Z29	X30	Y30	Z30	X31	Y31	Z31	X32	Y32	Z32	X33	Y33	Z33	

53	58.483714285714	784.156190706257	1010.740567801745	491.645984786928	928.989829451205	1441.570187613123	301.514433236892	1051.916161120945	1375.443257908727	448.751361557718	986.928576348954	1444.438543539044	631.445748800222	925.845215169885	1498.866156104622	457.054757716292	1017.098553391667	947.103118618487	591.426482573229	984.862838902063	967.283495512016	319.986864528092	1036.643679824870	738.308671334373	560.866792179084	944.714692342890	635.479514176981	621.153821148865	1012.845903651927	577.659314309879	539.603726549565	1004.395220499745	492.569851772241	543.299477958835	1075.381549102681	791.564621231590	346.699452295162	1035.055322859111	662.753683476151	269.056887355019	1145.045321742533	606.517738130305	324.292674451863	1164.823238249654	519.706641620019	315.396971237590	1109.213114991226	446.489865469019	311.560728954927	975.659559735422	377.757321445670	272.721353430793	994.113161698449	248.170046694350	325.432711245578	976.628952697389	405.794904123156	547.475758213055	904.170174862261	300.164074554127	603.751479539611	948.443050058666	207.531346947969	537.876284920069	815.210488844286	42.055495134367	497.645023171657	986.333426437886	96.763050931378	537.693875624470	896.856331036409	36.461574275199	574.275385270863	1105.218136324735	43.186999953308	567.745727543543	824.538441881761	149.529458626880	376.880597038068	881.880241712050	112.847023910394	292.383993055890	985.103208832181	139.716085647195	305.037204850518	1078.497530376341	42.282652167764	271.637846969966	862.032262771620	1085.812083764099	206.904192383640	886.979664208975	827.545558948988	213.299367965479	1065.183381738523	1106.687025766822	753.741527087565	1301.073682171999	1027.624391015552	691.166277806708	
54	58.496285714286	782.925259904054	1011.327299697623	492.719281318780	928.138123747840	1441.715117480634	302.375633238788	1051.873412661754	1374.967569578279	448.600332828131	988.523174710862	1444.217472834280	631.787398946547	926.069240328302	1498.769545923149	457.780530955286	1016.021618953439	946.479818198689	591.314813480458	982.732672178551	967.364576596724	320.011157492086	1032.845402833209	737.290406276086	560.326188285914	940.103535438515	635.345575323958	621.406595918551	1006.962950368449	576.794201960466	539.557050733779	997.757412555792	492.088455372623	543.425277707559	1073.647252115115	792.849633211144	347.318986876232	1034.982733369066	663.778516930434	269.445937144062	1144.526760605729	608.344360732667	325.959910716393	1165.980692726755	523.151350527907	316.706985197550	1114.220853540428	448.791362088108	312.115727325508	985.497395768911	372.070631915926	272.710668041158	1012.323599978620	243.492510239310	324.779317810290	969.726339870529	405.639790853623	547.632549030722	897.082151540237	300.103069107262	603.924822106495	941.056747464091	207.404888769339	537.938411137666	807.587004340397	41.986409772299	497.664875516384	978.689176877437	96.724632087403	537.729587273416	889.222105631009	36.427267738415	574.324079808097	1097.558329712249	43.215995733423	567.807026294515	849.832811871737	133.117558085831	375.805873228166	909.300904934269	101.542862445315	290.782432252969	1010.490844933910	135.164535283861	303.603791894511	1110.258121767512	44.816155468625	268.921161670812	854.069226551302	1087.674365921919	207.791998919289	873.911978974854	829.042436602543	214.955492926365	1073.541993647087	1108.728784520299	753.617671257404	1312.239983005468	1045.395243260391	686.638845087271	
55	58.508857142857	781.665172703016	1011.745827406393	493.661498184275	927.449771881007	1441.736053470855	303.146269897824	1051.914498139742	1374.262603286414	448.373409838929	990.171107502890	1443.716527471111	632.049155352804	926.401588621972	1498.498925102140	458.445178473814	1014.930038464668	945.717640316496	591.041483666562	980.568402152110	967.206529106527	319.843502328897	1029.206796802545	736.204857372296	559.841424607590	935.647413714113	635.115077929601	621.604691586602	1001.307828876285	575.884929078659	539.486293824771	991.355259660033	491.530879855847	543.485528879792	1071.496436763231	793.487498983755	347.813835863488	1034.214890033961	664.247916878178	269.763301110584	1143.077675353024	609.379775321780	327.771095386702	1166.140430537784	526.037529123393	318.197393761716	1118.418314899328	450.834295662191	312.794492421975	995.395097713864	366.195617772508	272.466841061772	1030.612261020181	239.245394778596	324.126669430401	963.013843793320	405.392139702278	547.716221524010	890.168989815059	299.984770390611	604.065050124930	933.736535906211	207.211289613174	537.937457169335	799.967919893948	41.901603252348	497.669022041136	971.021889030473	96.662150197416	537.728361262325	881.584084141669	36.391179578448	574.368159774214	1089.900863634261	43.233753439163	567.860737920563	876.127796557961	117.426807604847	374.335176080994	937.659679030785	91.110080873591	289.058421375904	1036.224340393004	131.429270643759	302.327331102229	1142.013424038895	48.640669001891	266.882683368350	846.457235304610	1089.535583431963	208.567202971796	861.648667423922	830.648747222495	216.407381916229	1081.594667222122	1110.523715357222	753.254854007177	1322.008303825162	1062.838342293008	681.999759618437	
56	58.521428571429	780.392662965360	1012.009023351847	494.479431852714	926.925747998290	1441.643914811638	303.807146929882	1052.033047615061	1373.356134938561	448.065751869263	991.850847922841	1442.975593342817	632.214854851598	926.837387290045	1498.077946116245	459.028986556719	1013.837729865640	944.848452654314	590.618185308448	978.384807992606	966.833830884655	319.490540442636	1025.763924109784	735.072178582656	559.423675528136	931.382736326638	634.798377883153	621.741968430764	995.929523446608	574.945959011996	539.387107530779	985.238267774694	490.899863485711	543.468455963209	1068.943733412443	793.517682699572	348.186782661372	1032.750868668377	664.200311400277	269.981267556124	1140.758645994097	609.679504266048	329.627063176801	1165.365639515530	528.398082777220	319.819463257611	1121.818474402915	452.665130881720	313.597392033892	1005.326953068392	360.333810770935	271.976949127842	1048.764462258298	235.647883326695	323.543004321899	956.530373992585	405.045918664150	547.714274179962	883.458340247422	299.821075910438	604.170254743031	926.501671180818	206.955231050371	537.873976890941	792.350867449114	41.808652604372	497.663743741094	963.335490420761	96.579311697513	537.697428846926	873.943333273049	36.355652461894	574.409995193685	1082.248868275039	43.239335788664	567.908602554941	903.066441838635	102.886591330704	372.504688357133	966.644849184456	81.868254624868	287.313895419880	1062.000996609929	128.740985582549	301.333015638360	1173.397283356817	53.895970746181	265.795140866296	839.285012618713	1091.353725076829	209.265833603405	850.171669718330	832.292934708464	217.652558183136	1089.323109400920	1112.070855007881	752.632013328059	1330.416494252584	1079.760052217376	677.302029634168	
57	58.534000000000	779.129552224899	1012.137440823325	495.179603556683	926.559259318577	1441.452945858918	304.340333782485	1052.220702744771	1372.285989790492	447.672724765497	993.539185347461	1442.048131532604	632.267291179185	927.366043580582	1497.536380163598	459.510202273894	1012.762856566603	943.906104951060	590.059673491693	976.201731977759	966.283531765299	318.966894811171	1022.542599639350	733.912431870124	559.060626698101	927.344211598128	634.407323934941	621.805964632180	990.864070410344	573.991909797732	539.241170992626	979.445514545151	490.199960643056	543.356793473299	1066.026288803635	793.003092776633	348.437393320651	1030.621524121873	663.694980548278	270.072699911274	1137.672151151916	609.327681936502	331.414347992292	1163.746676721803	530.279124970836	321.510875621492	1124.450548181962	454.326450096905	314.505520886743	1015.208275579504	354.674151930452	271.263189079157	1066.525816567819	232.858154558832	323.089330786917	950.308015346444	404.599947133795	547.613304104763	876.971770027618	299.625278455034	604.234281892906	919.367895180552	206.642299360177	537.748358126945	784.734180384455	41.715470960068	497.654881187284	955.635648590950	96.480755493421	537.644981038527	866.301163533331	36.323003061461	574.451050403521	1074.605381715493	43.231987838336	567.952443729754	930.204581332333	89.841533955003	370.407568061236	995.837745085515	74.044192114161	285.668007451049	1087.456650710075	127.239379801023	300.717210418055	1203.995918991099	60.594807915942	265.828211775607	832.635722963642	1093.087186749664	209.909841563503	839.475453835726	833.913956088534	218.689486678391	1096.699929391595	1113.381859864126	751.730599121951	1337.522534590012	1095.975675209627	672.591721361625	
58	58.546571428571	777.901760360966	1012.155008106786	495.766386783767	926.334840025170	1441.177963738351	304.730112031941	1052.466664251393	1371.095854270065	447.190242284326	995.211698678891	1440.995057123030	632.189958076471	927.970839829170	1496.906174143516	459.867377968812	1011.726972981641	942.922923550127	589.381477165552	974.044946054300	965.599945021807	318.293756646179	1019.560713167712	732.743833282787	558.720247046611	923.565353781404	633.953487667285	621.779301061893	986.136713154337	573.035832831064	539.019999234372	974.006280944494	489.436269874690	543.130515653488	1062.811111006505	792.026480515114	348.560553415318	1027.895082927297	662.804835812326	270.019847621603	1133.963832044777	608.429335515214	333.018187846558	1161.402572828079	531.730984785927	323.198717922093	1126.358602012032	455.847943517355	315.478503321595	1024.886791388129	349.379409441776	270.388341970411	1083.605560246264	230.957364269315	322.810703630390	944.373161552124	404.058066518887	547.402112646486	870.725396677689	299.410634662487	604.247937453644	912.347839402569	206.278288372672	537.561232031635	777.117216873110	41.630163620485	497.647544768342	947.929890233948	96.371620857084	537.579473348545	858.659048615571	36.295182575278	574.491978908493	1066.973098064295	43.210213239422	567.993878041669	957.021481546413	78.534021468681	368.197762479764	1024.705984424279	67.756171658611	284.248686368872	1112.163811981260	126.955320374025	300.531533783462	1233.337566145228	68.600549436201	267.007007769033	826.582829100320	1094.694136301512	210.505300385353	829.570912887452	835.458659191351	219.517101176391	1103.688465908670	1114.475604742061	750.537160588557	1343.402226641903	1111.313886597578	667.905355083332	
